<svg xmlns="http://www.w3.org/2000/svg" viewBox="0 0 1400 1380" width="1400" height="1380">
  <style>
    text { font-family: "Helvetica Neue", Helvetica, Arial, "PingFang SC", "Microsoft YaHei", "Hiragino Sans GB", sans-serif; }
    .layer-label { font-size: 14px; font-weight: 600; fill: #374151; }
    .node-title { font-size: 15px; font-weight: 600; fill: #111827; }
    .node-sub { font-size: 12px; fill: #6b7280; }
    .pill-title { font-size: 13px; font-weight: 600; fill: #1f2937; }
    .pill-sub { font-size: 11px; fill: #6b7280; }
    .arrow-label { font-size: 11px; fill: #4b5563; }
    .legend-text { font-size: 12px; fill: #4b5563; }
    .tag-new { font-size: 10px; font-weight: 700; fill: #b91c1c; }
  </style>
  <defs>
    <marker id="arrow-blue" markerWidth="10" markerHeight="7" refX="9" refY="3.5" orient="auto"><polygon points="0 0, 10 3.5, 0 7" fill="#2563eb"/></marker>
    <marker id="arrow-orange" markerWidth="10" markerHeight="7" refX="9" refY="3.5" orient="auto"><polygon points="0 0, 10 3.5, 0 7" fill="#ea580c"/></marker>
    <marker id="arrow-green" markerWidth="10" markerHeight="7" refX="9" refY="3.5" orient="auto"><polygon points="0 0, 10 3.5, 0 7" fill="#16a34a"/></marker>
    <marker id="arrow-purple" markerWidth="10" markerHeight="7" refX="9" refY="3.5" orient="auto"><polygon points="0 0, 10 3.5, 0 7" fill="#7c3aed"/></marker>
    <marker id="arrow-gray" markerWidth="10" markerHeight="7" refX="9" refY="3.5" orient="auto"><polygon points="0 0, 10 3.5, 0 7" fill="#6b7280"/></marker>
    <marker id="arrow-gray-start" markerWidth="10" markerHeight="7" refX="1" refY="3.5" orient="auto"><polygon points="10 0, 0 3.5, 10 7" fill="#6b7280"/></marker>
  </defs>
  <rect width="1400" height="1380" fill="#ffffff"/>
  <text x="700" y="38" text-anchor="middle" font-size="22" font-weight="600" fill="#111827">DeepThink 系统整体架构图</text>
  <text x="700" y="60" text-anchor="middle" font-size="13" fill="#6b7280">Enterprise Agent SaaS · 自进化超级智能体平台 · Harness → Loop Engineering · 多引擎 + Docker 沙箱</text>
  <!-- L1 用户接入层 -->
  <rect x="40" y="90" width="1320" height="140" fill="none" stroke="#9ca3af" stroke-width="1.2" stroke-dasharray="6,4" rx="10"/>
  <rect x="56" y="80" width="180" height="20" fill="#f3f4f6" stroke="#9ca3af" stroke-width="1.2" stroke-dasharray="6,4" rx="4"/>
  <text x="60" y="95" class="layer-label">① 用户接入层</text>
  <rect x="80" y="120" width="280" height="95" fill="#eff6ff" stroke="#bfdbfe" stroke-width="1.5" rx="8"/>
  <rect x="80" y="120" width="6" height="95" fill="#2563eb" rx="3"/>
  <text x="100" y="145" class="node-title">Web 前端</text>
  <text x="100" y="165" class="node-sub">React 19 · Vite 6 · Zustand 5</text>
  <text x="100" y="182" class="node-sub">React Router 7 · PWA · WebSocket</text>
  <text x="100" y="199" class="node-sub">沙箱面板 · Mermaid · markdown</text>
  <rect x="380" y="120" width="280" height="95" fill="#fff7ed" stroke="#fed7aa" stroke-width="1.5" rx="8"/>
  <rect x="380" y="120" width="6" height="95" fill="#ea580c" rx="3"/>
  <text x="400" y="145" class="node-title">桌面版 Electron 壳</text>
  <text x="400" y="165" class="node-sub">macOS (.dmg) · Windows (.exe)</text>
  <text x="400" y="182" class="node-sub">Linux (.AppImage)</text>
  <text x="400" y="199" class="node-sub">BackendSupervisor spawn 后端</text>
  <rect x="680" y="120" width="660" height="95" fill="#f0fdfa" stroke="#99f6e4" stroke-width="1.5" rx="8"/>
  <rect x="680" y="120" width="6" height="95" fill="#0d9488" rx="3"/>
  <text x="700" y="142" class="node-title">IM 渠道（per-user 连接池 · 7 通道）</text>
  <rect x="700" y="155" width="86" height="50" fill="#ffffff" stroke="#5eead4" stroke-width="1" rx="6"/>
  <text x="743" y="175" text-anchor="middle" class="pill-title">飞书</text>
  <text x="743" y="192" text-anchor="middle" class="pill-sub">WebSocket</text>
  <rect x="792" y="155" width="86" height="50" fill="#ffffff" stroke="#5eead4" stroke-width="1" rx="6"/>
  <text x="835" y="175" text-anchor="middle" class="pill-title">Telegram</text>
  <text x="835" y="192" text-anchor="middle" class="pill-sub">Bot Long Poll</text>
  <rect x="884" y="155" width="86" height="50" fill="#ffffff" stroke="#5eead4" stroke-width="1" rx="6"/>
  <text x="927" y="175" text-anchor="middle" class="pill-title">QQ</text>
  <text x="927" y="192" text-anchor="middle" class="pill-sub">Bot API v2</text>
  <rect x="976" y="155" width="86" height="50" fill="#ffffff" stroke="#5eead4" stroke-width="1" rx="6"/>
  <text x="1019" y="175" text-anchor="middle" class="pill-title">钉钉</text>
  <text x="1019" y="192" text-anchor="middle" class="pill-sub">Stream 协议</text>
  <rect x="1068" y="155" width="86" height="50" fill="#ffffff" stroke="#5eead4" stroke-width="1" rx="6"/>
  <text x="1111" y="175" text-anchor="middle" class="pill-title">WhatsApp</text>
  <text x="1111" y="192" text-anchor="middle" class="pill-sub">Baileys</text>
  <rect x="1160" y="155" width="86" height="50" fill="#ffffff" stroke="#5eead4" stroke-width="1" rx="6"/>
  <text x="1203" y="175" text-anchor="middle" class="pill-title">Discord</text>
  <text x="1203" y="192" text-anchor="middle" class="pill-sub">Gateway WS</text>
  <text x="1203" y="208" text-anchor="middle" class="tag-new">NEW</text>
  <rect x="1252" y="155" width="86" height="50" fill="#ffffff" stroke="#5eead4" stroke-width="1" rx="6"/>
  <text x="1295" y="175" text-anchor="middle" class="pill-title">微信</text>
  <text x="1295" y="192" text-anchor="middle" class="pill-sub">iLink 长轮询</text>
  <text x="1295" y="208" text-anchor="middle" class="tag-new">NEW</text>
  <!-- L2 网关与认证层 -->
  <rect x="40" y="250" width="1320" height="110" fill="none" stroke="#9ca3af" stroke-width="1.2" stroke-dasharray="6,4" rx="10"/>
  <rect x="56" y="240" width="200" height="20" fill="#f3f4f6" stroke="#9ca3af" stroke-width="1.2" stroke-dasharray="6,4" rx="4"/>
  <text x="60" y="255" class="layer-label">② 网关与认证层</text>
  <rect x="80" y="275" width="620" height="75" fill="#eff6ff" stroke="#bfdbfe" stroke-width="1.5" rx="8"/>
  <rect x="80" y="275" width="6" height="75" fill="#2563eb" rx="3"/>
  <text x="100" y="298" class="node-title">Hono Web 服务（src/web.ts）</text>
  <text x="100" y="317" class="node-sub">REST API · /ws WebSocket · 实时推送 stream_event / agent_status</text>
  <text x="100" y="334" class="node-sub">HMAC Cookie · CORS Origin 纵深防御 · 静态文件托管</text>
  <rect x="720" y="275" width="290" height="75" fill="#fef2f2" stroke="#fecaca" stroke-width="1.5" rx="8"/>
  <rect x="720" y="275" width="6" height="75" fill="#dc2626" rx="3"/>
  <text x="740" y="298" class="node-title">认证与授权</text>
  <text x="740" y="317" class="node-sub">bcrypt · 30 天 Session · RBAC</text>
  <text x="740" y="334" class="node-sub">审计日志 · 登录锁定 · 邀请码</text>
  <rect x="1030" y="275" width="310" height="75" fill="#fef3c7" stroke="#fcd34d" stroke-width="1.5" rx="8"/>
  <rect x="1030" y="275" width="6" height="75" fill="#d97706" rx="3"/>
  <text x="1050" y="298" class="node-title">计费 / 配额 网关 <tspan class="tag-new">NEW</tspan></text>
  <text x="1050" y="317" class="node-sub">billing.ts · 套餐 / 余额 / 配额</text>
  <text x="1050" y="334" class="node-sub">兑换码 · 月度聚合 · 审计</text>
  <!-- L3 业务路由层 -->
  <rect x="40" y="380" width="1320" height="190" fill="none" stroke="#9ca3af" stroke-width="1.2" stroke-dasharray="6,4" rx="10"/>
  <rect x="56" y="370" width="260" height="20" fill="#f3f4f6" stroke="#9ca3af" stroke-width="1.2" stroke-dasharray="6,4" rx="4"/>
  <text x="60" y="385" class="layer-label">③ 业务路由层（Web API · src/routes/ · 28 路由）</text>
  <rect x="70" y="410" width="100" height="62" fill="#ffffff" stroke="#d1d5db" stroke-width="1.2" rx="6"/>
  <text x="120" y="432" text-anchor="middle" class="pill-title">auth</text>
  <text x="120" y="450" text-anchor="middle" class="pill-sub">登录/注册</text>
  <rect x="200" y="410" width="100" height="62" fill="#ffffff" stroke="#d1d5db" stroke-width="1.2" rx="6"/>
  <text x="250" y="432" text-anchor="middle" class="pill-title">groups</text>
  <text x="250" y="450" text-anchor="middle" class="pill-sub">群组 CRUD</text>
  <rect x="330" y="410" width="100" height="62" fill="#ffffff" stroke="#d1d5db" stroke-width="1.2" rx="6"/>
  <text x="380" y="432" text-anchor="middle" class="pill-title">files</text>
  <text x="380" y="450" text-anchor="middle" class="pill-sub">上传/下载</text>
  <rect x="460" y="410" width="100" height="62" fill="#ffffff" stroke="#d1d5db" stroke-width="1.2" rx="6"/>
  <text x="510" y="432" text-anchor="middle" class="pill-title">memory</text>
  <text x="510" y="450" text-anchor="middle" class="pill-sub">记忆读写</text>
  <rect x="590" y="410" width="100" height="62" fill="#ffffff" stroke="#d1d5db" stroke-width="1.2" rx="6"/>
  <text x="640" y="432" text-anchor="middle" class="pill-title">config</text>
  <text x="640" y="450" text-anchor="middle" class="pill-sub">Claude/IM</text>
  <rect x="720" y="410" width="100" height="62" fill="#ffffff" stroke="#d1d5db" stroke-width="1.2" rx="6"/>
  <text x="770" y="432" text-anchor="middle" class="pill-title">tasks</text>
  <text x="770" y="450" text-anchor="middle" class="pill-sub">定时任务</text>
  <rect x="850" y="410" width="100" height="62" fill="#ffffff" stroke="#d1d5db" stroke-width="1.2" rx="6"/>
  <text x="900" y="432" text-anchor="middle" class="pill-title">agents</text>
  <text x="900" y="450" text-anchor="middle" class="pill-sub">Sub-Agent</text>
  <rect x="980" y="410" width="100" height="62" fill="#ffffff" stroke="#d1d5db" stroke-width="1.2" rx="6"/>
  <text x="1030" y="432" text-anchor="middle" class="pill-title">admin</text>
  <text x="1030" y="450" text-anchor="middle" class="pill-sub">用户/审计</text>
  <rect x="1110" y="410" width="100" height="62" fill="#ffffff" stroke="#d1d5db" stroke-width="1.2" rx="6"/>
  <text x="1160" y="432" text-anchor="middle" class="pill-title">monitor</text>
  <text x="1160" y="450" text-anchor="middle" class="pill-sub">健康检查</text>
  <rect x="1240" y="410" width="100" height="62" fill="#ffffff" stroke="#d1d5db" stroke-width="1.2" rx="6"/>
  <text x="1290" y="432" text-anchor="middle" class="pill-title">usage</text>
  <text x="1290" y="450" text-anchor="middle" class="pill-sub">Token 用量</text>
  <rect x="70" y="488" width="100" height="62" fill="#ffffff" stroke="#d1d5db" stroke-width="1.2" rx="6"/>
  <text x="120" y="510" text-anchor="middle" class="pill-title">sandbox</text>
  <text x="120" y="528" text-anchor="middle" class="pill-sub">沙箱引擎</text>
  <text x="120" y="544" text-anchor="middle" class="tag-new">NEW</text>
  <rect x="200" y="488" width="100" height="62" fill="#ffffff" stroke="#d1d5db" stroke-width="1.2" rx="6"/>
  <text x="250" y="510" text-anchor="middle" class="pill-title">mcp</text>
  <text x="250" y="528" text-anchor="middle" class="pill-sub">MCP Server</text>
  <rect x="330" y="488" width="100" height="62" fill="#ffffff" stroke="#d1d5db" stroke-width="1.2" rx="6"/>
  <text x="380" y="510" text-anchor="middle" class="pill-title">plugins</text>
  <text x="380" y="528" text-anchor="middle" class="pill-sub">Plugin</text>
  <rect x="460" y="488" width="100" height="62" fill="#ffffff" stroke="#d1d5db" stroke-width="1.2" rx="6"/>
  <text x="510" y="510" text-anchor="middle" class="pill-title">skills</text>
  <text x="510" y="528" text-anchor="middle" class="pill-sub">Skills</text>
  <rect x="590" y="488" width="100" height="62" fill="#ffffff" stroke="#d1d5db" stroke-width="1.2" rx="6"/>
  <text x="640" y="510" text-anchor="middle" class="pill-title">harness</text>
  <text x="640" y="528" text-anchor="middle" class="pill-sub">Harness 版本</text>
  <text x="640" y="544" text-anchor="middle" class="tag-new">NEW</text>
  <rect x="720" y="488" width="100" height="62" fill="#ffffff" stroke="#d1d5db" stroke-width="1.2" rx="6"/>
  <text x="770" y="510" text-anchor="middle" class="pill-title">loops</text>
  <text x="770" y="528" text-anchor="middle" class="pill-sub">Loop 循环</text>
  <text x="770" y="544" text-anchor="middle" class="tag-new">NEW</text>
  <rect x="850" y="488" width="100" height="62" fill="#ffffff" stroke="#d1d5db" stroke-width="1.2" rx="6"/>
  <text x="900" y="510" text-anchor="middle" class="pill-title">chat-trace</text>
  <text x="900" y="528" text-anchor="middle" class="pill-sub">会话追踪</text>
  <text x="900" y="544" text-anchor="middle" class="tag-new">NEW</text>
  <rect x="980" y="488" width="100" height="62" fill="#ffffff" stroke="#d1d5db" stroke-width="1.2" rx="6"/>
  <text x="1030" y="510" text-anchor="middle" class="pill-title">billing</text>
  <text x="1030" y="528" text-anchor="middle" class="pill-sub">计费/兑换</text>
  <text x="1030" y="544" text-anchor="middle" class="tag-new">NEW</text>
  <rect x="1110" y="488" width="100" height="62" fill="#ffffff" stroke="#d1d5db" stroke-width="1.2" rx="6"/>
  <text x="1160" y="510" text-anchor="middle" class="pill-title">paas-*</text>
  <text x="1160" y="528" text-anchor="middle" class="pill-sub">PaaS 企业</text>
  <text x="1160" y="544" text-anchor="middle" class="tag-new">NEW</text>
  <rect x="1240" y="488" width="100" height="62" fill="#ffffff" stroke="#d1d5db" stroke-width="1.2" rx="6"/>
  <text x="1290" y="510" text-anchor="middle" class="pill-title">workspace</text>
  <text x="1290" y="528" text-anchor="middle" class="pill-sub">工作区配置</text>
  <text x="1290" y="544" text-anchor="middle" class="tag-new">NEW</text>
  <!-- L4 核心调度层 -->
  <rect x="40" y="590" width="1320" height="130" fill="none" stroke="#9ca3af" stroke-width="1.2" stroke-dasharray="6,4" rx="10"/>
  <rect x="56" y="580" width="200" height="20" fill="#f3f4f6" stroke="#9ca3af" stroke-width="1.2" stroke-dasharray="6,4" rx="4"/>
  <text x="60" y="595" class="layer-label">④ 核心调度层</text>
  <rect x="60" y="620" width="200" height="85" fill="#faf5ff" stroke-width="1.5" rx="8" stroke="#ddd6fe"/>
  <rect x="60" y="620" width="6" height="85" fill="#ddd6fe" rx="3"/>
  <text x="78" y="643" class="node-title">index.ts 主进程</text>
  <text x="78" y="661" class="node-sub">消息轮询 2s</text>
  <text x="78" y="678" class="node-sub">loadState() 启动</text>
  <text x="78" y="695" class="node-sub">容器/进程生命周期</text>
  <rect x="277" y="620" width="200" height="85" fill="#fff7ed" stroke-width="1.5" rx="8" stroke="#fed7aa"/>
  <rect x="277" y="620" width="6" height="85" fill="#fed7aa" rx="3"/>
  <text x="295" y="643" class="node-title">GroupQueue</text>
  <text x="295" y="661" class="node-sub">20 容器 + 5 宿主机</text>
  <text x="295" y="678" class="node-sub">任务优先 · 退避重试</text>
  <text x="295" y="695" class="node-sub">_close 优雅关闭</text>
  <rect x="494" y="620" width="200" height="85" fill="#f0fdf4" stroke-width="1.5" rx="8" stroke="#bbf7d0"/>
  <rect x="494" y="620" width="6" height="85" fill="#bbf7d0" rx="3"/>
  <text x="512" y="643" class="node-title">IMConnectionManager</text>
  <text x="512" y="661" class="node-sub">per-user 7 通道</text>
  <text x="512" y="678" class="node-sub">热重连</text>
  <text x="512" y="695" class="node-sub">ignoreMessagesBefore</text>
  <rect x="711" y="620" width="200" height="85" fill="#eff6ff" stroke-width="1.5" rx="8" stroke="#bfdbfe"/>
  <rect x="711" y="620" width="6" height="85" fill="#bfdbfe" rx="3"/>
  <text x="729" y="643" class="node-title">TaskScheduler</text>
  <text x="729" y="661" class="node-sub">60s 轮询调度</text>
  <text x="729" y="678" class="node-sub">cron/interval/once</text>
  <text x="729" y="695" class="node-sub">逾期容忍窗口</text>
  <rect x="928" y="620" width="200" height="85" fill="#fef3c7" stroke-width="1.5" rx="8" stroke="#fcd34d"/>
  <rect x="928" y="620" width="6" height="85" fill="#fcd34d" rx="3"/>
  <text x="946" y="643" class="node-title">ProviderPool</text>
  <text x="946" y="661" class="node-sub">多提供商负载均衡</text>
  <text x="946" y="678" class="node-sub">round-robin/weighted</text>
  <text x="946" y="695" class="node-sub">failover · sticky</text>
  <text x="928" y="643" dx="170" class="tag-new">NEW</text>
  <rect x="1145" y="620" width="200" height="85" fill="#fce7f3" stroke-width="1.5" rx="8" stroke="#f9a8d4"/>
  <rect x="1145" y="620" width="6" height="85" fill="#f9a8d4" rx="3"/>
  <text x="1163" y="643" class="node-title">Supervisor</text>
  <text x="1163" y="661" class="node-sub">意图解析(不调工具)</text>
  <text x="1163" y="678" class="node-sub">clarify/delegate/auto</text>
  <text x="1163" y="695" class="node-sub">超时 60s</text>
  <text x="1145" y="643" dx="170" class="tag-new">NEW</text>
  <!-- L5 Agent 执行引擎（多引擎） -->
  <rect x="40" y="740" width="1320" height="230" fill="none" stroke="#9ca3af" stroke-width="1.2" stroke-dasharray="6,4" rx="10"/>
  <rect x="56" y="730" width="300" height="20" fill="#f3f4f6" stroke="#9ca3af" stroke-width="1.2" stroke-dasharray="6,4" rx="4"/>
  <text x="60" y="745" class="layer-label">⑤ Agent 执行引擎（多引擎 · container/agent-runner/）</text>
  <rect x="70" y="770" width="305" height="60" fill="#eff6ff" stroke="#bfdbfe" stroke-width="1.5" rx="8"/>
  <rect x="70" y="770" width="6" height="60" fill="#2563eb" rx="3"/>
  <text x="90" y="792" class="node-title">Claude Agent SDK（引擎 1）</text>
  <text x="90" y="812" class="node-sub">host / container 模式 · cli.js 内置</text>
  <rect x="395" y="770" width="305" height="60" fill="#f0fdf4" stroke="#bbf7d0" stroke-width="1.5" rx="8"/>
  <rect x="395" y="770" width="6" height="60" fill="#16a34a" rx="3"/>
  <text x="415" y="792" class="node-title">Codex / OpenCode（引擎 2/3）<tspan class="tag-new"> NEW</tspan></text>
  <text x="415" y="812" class="node-sub">stdio MCP 桥接 · serve HTTP/SSE</text>
  <rect x="720" y="770" width="305" height="60" fill="#faf5ff" stroke="#ddd6fe" stroke-width="1.5" rx="8"/>
  <rect x="720" y="770" width="6" height="60" fill="#7c3aed" rx="3"/>
  <text x="740" y="792" class="node-title">AtomCode daemon（引擎 4）<tspan class="tag-new"> NEW</tspan></text>
  <text x="740" y="812" class="node-sub">per-runner loopback daemon · /chat SSE</text>
  <rect x="1045" y="770" width="295" height="60" fill="#fff7ed" stroke="#fed7aa" stroke-width="1.5" rx="8"/>
  <rect x="1045" y="770" width="6" height="60" fill="#ea580c" rx="3"/>
  <text x="1065" y="792" class="node-title">共享运行时</text>
  <text x="1065" y="812" class="node-sub">StreamEventProcessor · SubAgent · Hook</text>
  <rect x="70" y="845" width="1270" height="115" fill="#fef2f2" stroke="#fecaca" stroke-width="1.5" stroke-dasharray="5,3" rx="8"/>
  <rect x="70" y="845" width="6" height="115" fill="#dc2626" rx="3"/>
  <text x="90" y="868" class="node-title">Docker 沙箱引擎（src/sandbox/）· 全新执行面 <tspan class="tag-new">NEW</tspan></text>
  <text x="90" y="886" class="node-sub">SandboxManager · docker run -d · per-session 串行 exec · idle/hard 超时 · 持久化 sandbox_sessions/executions</text>
  <rect x="90" y="898" width="225" height="50" fill="#ffffff" stroke="#fca5a5" stroke-width="1" rx="6"/>
  <text x="202" y="918" text-anchor="middle" class="pill-title">代码执行</text>
  <text x="202" y="935" text-anchor="middle" class="pill-sub">多语言 · 输出限制</text>
  <rect x="330" y="898" width="225" height="50" fill="#ffffff" stroke="#fca5a5" stroke-width="1" rx="6"/>
  <text x="442" y="918" text-anchor="middle" class="pill-title">浏览器自动化</text>
  <text x="442" y="935" text-anchor="middle" class="pill-sub">Playwright · 帧推送</text>
  <rect x="570" y="898" width="225" height="50" fill="#ffffff" stroke="#fca5a5" stroke-width="1" rx="6"/>
  <text x="682" y="918" text-anchor="middle" class="pill-title">CDP forwarder</text>
  <text x="682" y="935" text-anchor="middle" class="pill-sub">container/cdp-forwarder.js</text>
  <rect x="810" y="898" width="225" height="50" fill="#ffffff" stroke="#fca5a5" stroke-width="1" rx="6"/>
  <text x="922" y="918" text-anchor="middle" class="pill-title">安全隔离</text>
  <text x="922" y="935" text-anchor="middle" class="pill-sub">seccomp · 资源限额</text>
  <rect x="1050" y="898" width="225" height="50" fill="#ffffff" stroke="#fca5a5" stroke-width="1" rx="6"/>
  <text x="1162" y="918" text-anchor="middle" class="pill-title">MAX 并发</text>
  <text x="1162" y="935" text-anchor="middle" class="pill-sub">per-user / 全局上限</text>
  <!-- L6 Loop Engineering 闭环 -->
  <rect x="40" y="990" width="1320" height="110" fill="none" stroke="#9ca3af" stroke-width="1.2" stroke-dasharray="6,4" rx="10"/>
  <rect x="56" y="980" width="320" height="20" fill="#f3f4f6" stroke="#9ca3af" stroke-width="1.2" stroke-dasharray="6,4" rx="4"/>
  <text x="60" y="995" class="layer-label">⑥ Loop Engineering 闭环（自进化引擎）<tspan class="tag-new"> NEW</tspan></text>
  <rect x="70" y="1018" width="410" height="70" fill="#faf5ff" stroke="#ddd6fe" stroke-width="1.5" rx="8"/>
  <rect x="70" y="1018" width="6" height="70" fill="#7c3aed" rx="3"/>
  <text x="90" y="1040" class="node-title">LoopOrchestrator · 自主任务循环</text>
  <text x="90" y="1058" class="node-sub">pending→running→reviewing→iterating→completed</text>
  <text x="90" y="1075" class="node-sub">每轮：执行 Agent → 评审(pass/fail) → 注入改进</text>
  <rect x="500" y="1018" width="410" height="70" fill="#fff7ed" stroke="#fed7aa" stroke-width="1.5" rx="8"/>
  <rect x="500" y="1018" width="6" height="70" fill="#ea580c" rx="3"/>
  <text x="520" y="1040" class="node-title">Harness Registry · 版本快照</text>
  <text x="520" y="1058" class="node-sub">system prompt + subagent + tool + skill 清单</text>
  <text x="520" y="1075" class="node-sub">snapshot / diff / promote / rollback（原子）</text>
  <rect x="930" y="1018" width="410" height="70" fill="#f0fdf4" stroke="#bbf7d0" stroke-width="1.5" rx="8"/>
  <rect x="930" y="1018" width="6" height="70" fill="#16a34a" rx="3"/>
  <text x="950" y="1040" class="node-title">Harness Eval · Meta-Loop</text>
  <text x="950" y="1058" class="node-sub">变体评估 · 失败变体留存为阶梯石</text>
  <text x="950" y="1075" class="node-sub">DGM-style archive · Continual Harness</text>
  <!-- L7 数据持久化层 -->
  <rect x="40" y="1120" width="1320" height="160" fill="none" stroke="#9ca3af" stroke-width="1.2" stroke-dasharray="6,4" rx="10"/>
  <rect x="56" y="1110" width="200" height="20" fill="#f3f4f6" stroke="#9ca3af" stroke-width="1.2" stroke-dasharray="6,4" rx="4"/>
  <text x="60" y="1125" class="layer-label">⑦ 数据持久化层</text>
  <rect x="70" y="1148" width="320" height="118" fill="#f0fdf4" stroke="#bbf7d0" stroke-width="1.5" rx="8"/>
  <rect x="70" y="1148" width="6" height="118" fill="#16a34a" rx="3"/>
  <text x="90" y="1171" class="node-title">SQLite（WAL 模式）</text>
  <text x="90" y="1190" class="node-sub">Schema v1 → v51</text>
  <text x="90" y="1207" class="node-sub">messages · chats · groups · users</text>
  <text x="90" y="1224" class="node-sub">loops · harness_versions · billing</text>
  <text x="90" y="1241" class="node-sub">sandbox_sessions · kb_documents</text>
  <rect x="410" y="1148" width="320" height="118" fill="#faf5ff" stroke="#ddd6fe" stroke-width="1.5" rx="8"/>
  <rect x="410" y="1148" width="6" height="118" fill="#7c3aed" rx="3"/>
  <text x="430" y="1171" class="node-title">向量嵌入（RAG）<tspan class="tag-new"> NEW</tspan></text>
  <text x="430" y="1190" class="node-sub">embedding.ts · OpenAI 兼容 API</text>
  <text x="430" y="1207" class="node-sub">text → Float32 向量</text>
  <text x="430" y="1224" class="node-sub">kb_documents.embedding</text>
  <text x="430" y="1241" class="node-sub">未配置时 fallback FTS5</text>
  <rect x="750" y="1148" width="300" height="118" fill="#eff6ff" stroke="#bfdbfe" stroke-width="1.5" rx="8"/>
  <rect x="750" y="1148" width="6" height="118" fill="#2563eb" rx="3"/>
  <text x="770" y="1171" class="node-title">文件系统 data/</text>
  <text x="770" y="1190" class="node-sub">groups/{folder}/ · sessions/</text>
  <text x="770" y="1207" class="node-sub">ipc/{folder}/ · extra/</text>
  <text x="770" y="1224" class="node-sub">plugins/runtime/ · skills/</text>
  <text x="770" y="1241" class="node-sub">harness/versions/ · sandbox/</text>
  <rect x="1070" y="1148" width="270" height="118" fill="#fef2f2" stroke="#fecaca" stroke-width="1.5" rx="8"/>
  <rect x="1070" y="1148" width="6" height="118" fill="#dc2626" rx="3"/>
  <text x="1090" y="1171" class="node-title">AES-256-GCM 加密配置</text>
  <text x="1090" y="1190" class="node-sub">claude-provider · container-env</text>
  <text x="1090" y="1207" class="node-sub">user-im/{userId}/* (7 通道)</text>
  <text x="1090" y="1224" class="node-sub">embedding.json · billing</text>
  <text x="1090" y="1241" class="node-sub">session-secret.key（0600）</text>
  <!-- arrows -->
  <path d="M 220,215 L 220,275" stroke="#2563eb" stroke-width="2" fill="none" marker-end="url(#arrow-blue)"/>
  <text x="228" y="250" class="arrow-label">HTTP / WS</text>
  <path d="M 520,215 L 520,275" stroke="#2563eb" stroke-width="2" fill="none" marker-end="url(#arrow-blue)"/>
  <text x="528" y="250" class="arrow-label">spawn 后端</text>
  <path d="M 1340,168 C 1380,168 1380,662 694,662" stroke="#7c3aed" stroke-width="1.8" fill="none" stroke-dasharray="4,3" marker-end="url(#arrow-purple)"/>
  <text x="1388" y="430" class="arrow-label" transform="rotate(90 1388 430)">7 通道消息事件</text>
  <path d="M 390,350 L 390,410" stroke="#2563eb" stroke-width="2" fill="none" marker-end="url(#arrow-blue)"/>
  <text x="398" y="384" class="arrow-label">路由分发</text>
  <path d="M 160,550 L 160,620" stroke="#2563eb" stroke-width="2" fill="none" marker-end="url(#arrow-blue)"/>
  <text x="168" y="588" class="arrow-label">调用/派发</text>
  <path d="M 260,662 L 277,662" stroke="#2563eb" stroke-width="1.8" fill="none" marker-end="url(#arrow-blue)"/>
  <path d="M 200,620 L 1245,620" stroke="#7c3aed" stroke-width="1.5" fill="none" stroke-dasharray="4,3" marker-end="url(#arrow-purple)"/>
  <text x="700" y="612" text-anchor="middle" class="arrow-label">消息意图解析</text>
  <path d="M 220,705 L 220,770" stroke="#ea580c" stroke-width="2" fill="none" marker-end="url(#arrow-orange)"/>
  <text x="228" y="742" class="arrow-label">host/container</text>
  <path d="M 547,705 L 547,770" stroke="#ea580c" stroke-width="2" fill="none" marker-end="url(#arrow-orange)"/>
  <text x="555" y="742" class="arrow-label">引擎调度</text>
  <path d="M 1028,662 L 1192,662 L 1192,770" stroke="#16a34a" stroke-width="1.5" fill="none" stroke-dasharray="5,3" marker-end="url(#arrow-green)"/>
  <text x="1100" y="654" class="arrow-label">provider 选择</text>
  <path d="M 275,830 L 275,1018" stroke="#ea580c" stroke-width="1.8" fill="none" stroke-dasharray="5,3" marker-end="url(#arrow-orange)"/>
  <text x="283" y="930" class="arrow-label">驱动迭代</text>
  <path d="M 380,1018 C 380,940 460,860 460,830" stroke="#7c3aed" stroke-width="1.5" fill="none" marker-end="url(#arrow-purple)"/>
  <text x="392" y="970" class="arrow-label">评审反馈</text>
  <path d="M 230,960 L 230,1148" stroke="#16a34a" stroke-width="2" fill="none" marker-end="url(#arrow-green)"/>
  <text x="238" y="1060" class="arrow-label">沙箱持久化</text>
  <path d="M 900,960 L 900,1148" stroke="#16a34a" stroke-width="2" fill="none" marker-end="url(#arrow-green)"/>
  <text x="908" y="1060" class="arrow-label">读写/持久化</text>
  <path d="M 570,1207 L 390,1207" stroke="#6b7280" stroke-width="1.2" fill="none" marker-end="url(#arrow-gray)"/>
  <path d="M 55,800 L 55,662 L 60,662" stroke="#6b7280" stroke-width="1.5" fill="none" stroke-dasharray="4,2" marker-end="url(#arrow-gray)"/>
  <text x="63" y="735" class="arrow-label">stream_event</text>
  <text x="63" y="749" class="arrow-label">/ IPC 回传</text>
  <!-- legend -->
  <rect x="40" y="1300" width="1320" height="60" fill="#f9fafb" stroke="#d1d5db" stroke-width="1" rx="6"/>
  <text x="56" y="1322" class="layer-label">图例</text>
  <line x1="110" y1="1320" x2="145" y2="1320" stroke="#2563eb" stroke-width="2" marker-end="url(#arrow-blue)"/>
  <text x="153" y="1324" class="legend-text">主请求/数据流</text>
  <line x1="270" y1="1320" x2="305" y2="1320" stroke="#ea580c" stroke-width="2" marker-end="url(#arrow-orange)"/>
  <text x="313" y="1324" class="legend-text">控制/调度触发</text>
  <line x1="440" y1="1320" x2="475" y2="1320" stroke="#16a34a" stroke-width="2" marker-end="url(#arrow-green)"/>
  <text x="483" y="1324" class="legend-text">数据读写</text>
  <line x1="600" y1="1320" x2="635" y2="1320" stroke="#7c3aed" stroke-width="1" stroke-dasharray="4,3" marker-end="url(#arrow-purple)"/>
  <text x="643" y="1324" class="legend-text">异步/反馈循环</text>
  <line x1="770" y1="1320" x2="805" y2="1320" stroke="#6b7280" stroke-width="1" stroke-dasharray="4,2" marker-end="url(#arrow-gray)"/>
  <text x="813" y="1324" class="legend-text">stream_event/IPC</text>
  <text x="940" y="1324" class="legend-text" font-style="italic">执行模式：host（admin）· container（member）· 沙箱（代码+浏览器）</text>
  <text x="940" y="1346" class="legend-text" font-style="italic" fill="#b91c1c">NEW = 自上一版架构图起新增</text>
</svg>